<svg width="715" height="622" viewBox="0 0 715 622" fill="none" xmlns="http://www.w3.org/2000/svg">
<path d="M466.886 411.677C470.735 418.343 480.357 418.343 484.206 411.677L713.228 15C717.077 8.33333 712.265 0 704.567 0H583.948C580.375 0 577.074 1.90598 575.288 4.99999L406.576 297.217C404.79 300.311 404.79 304.123 406.576 307.217L466.886 411.677Z" fill="white"/>
<path d="M426.471 501.677C428.257 504.771 428.257 508.583 426.471 511.677L365.951 616.5C362.102 623.167 352.48 623.167 348.631 616.5L119.711 220C115.862 213.333 120.674 205 128.372 205H249.324C252.897 205 256.198 206.906 257.984 210L356.978 381.462C356.988 381.479 357.012 381.479 357.022 381.462C357.031 381.446 357.056 381.446 357.065 381.462L426.471 501.677Z" fill="white"/>
<path d="M407.856 125C411.429 125 414.73 123.094 416.516 120L477.138 15C480.987 8.33333 476.176 0 468.478 0H10.0149C2.3169 0 -2.49433 8.33336 1.35467 15L61.9764 120C63.7628 123.094 67.064 125 70.6367 125H407.856Z" fill="white"/>
</svg>
