<svg width="268" height="70" viewBox="0 0 268 70" fill="none" xmlns="http://www.w3.org/2000/svg">
<path d="M52.4181 46.3675C52.8503 47.1183 53.9306 47.1183 54.3627 46.3675L80.0754 1.68946C80.5075 0.938589 79.9674 0 79.1031 0H65.5609C65.1598 0 64.7892 0.214671 64.5886 0.563152L45.647 33.4758C45.4465 33.8243 45.4465 34.2536 45.647 34.6021L52.4181 46.3675Z" fill="white"/>
<path d="M47.8807 56.5042C48.0813 56.8527 48.0813 57.2821 47.8807 57.6305L41.0861 69.4369C40.6539 70.1877 39.5736 70.1877 39.1414 69.4369L13.4402 24.7788C13.0081 24.0279 13.5483 23.0893 14.4125 23.0893H27.9921C28.3932 23.0893 28.7638 23.304 28.9644 23.6525L40.0786 42.9644C40.0797 42.9663 40.0824 42.9663 40.0835 42.9644C40.0846 42.9625 40.0873 42.9625 40.0884 42.9644L47.8807 56.5042Z" fill="white"/>
<path d="M45.7908 14.0788C46.1919 14.0788 46.5625 13.8642 46.7631 13.5157L53.5692 1.68946C54.0013 0.93859 53.4612 0 52.5969 0H1.12439C0.260123 0 -0.280044 0.938592 0.152091 1.68946L6.95821 13.5157C7.15877 13.8642 7.52941 14.0788 7.93051 14.0788H45.7908Z" fill="white"/>
<path d="M132.643 16.3902H141.437L124.886 54.6342H116.147L99.6505 16.3902H109.21L120.844 43.7073L132.643 16.3902Z" fill="white"/>
<path d="M170.628 40.0468C170.628 40.7024 170.519 41.6312 170.464 42.3415H148.233C149.052 46.002 152.165 48.242 156.644 48.242C159.758 48.242 161.998 47.3132 164.019 45.401L168.552 50.3181C165.821 53.4322 161.724 55.0712 156.426 55.0712C146.266 55.0712 139.657 48.679 139.657 39.9376C139.657 31.1415 146.375 24.8039 155.334 24.8039C163.964 24.8039 170.628 30.5951 170.628 40.0468ZM155.388 31.2507C151.51 31.2507 148.724 33.6 148.123 37.3698H162.598C161.998 33.6546 159.212 31.2507 155.388 31.2507Z" fill="white"/>
<path d="M176.301 54.6342V14.0956H184.822V54.6342H176.301Z" fill="white"/>
<path d="M192.731 54.6342V14.0956H201.252V54.6342H192.731Z" fill="white"/>
<path d="M227.954 47.2039L230.248 53.2137C228.5 54.4702 225.933 55.0712 223.311 55.0712C216.374 55.0712 212.332 51.52 212.332 44.5268V32.4527H207.798V25.8966H212.332V18.7395H220.853V25.8966H228.172V32.4527H220.853V44.4176C220.853 46.9307 222.219 48.2966 224.513 48.2966C225.769 48.2966 227.025 47.9142 227.954 47.2039Z" fill="white"/>
<path d="M243.17 29.12C245.246 26.279 248.742 24.8039 253.276 24.8039V32.6712C252.565 32.6166 252.019 32.562 251.364 32.562C246.666 32.562 243.553 35.1298 243.553 40.7571V54.6342H235.031V25.241H243.17V29.12Z" fill="white"/>
<path d="M262.603 21.1434C259.435 21.1434 257.304 19.0673 257.304 16.3902C257.304 13.7132 259.435 11.6371 262.603 11.6371C265.771 11.6371 267.901 13.6039 267.901 16.2263C267.901 19.0673 265.771 21.1434 262.603 21.1434ZM258.342 54.6342V25.241H266.863V54.6342H258.342Z" fill="white"/>
</svg>
